<?xml version="1.0" encoding="UTF-8"?>
<svg width="380px" height="384px" viewBox="0 0 380 384" version="1.1" xmlns="http://www.w3.org/2000/svg" xmlns:xlink="http://www.w3.org/1999/xlink">
    <!-- Generator: Sketch 50.2 (55047) - http://www.bohemiancoding.com/sketch -->
    <title>Artboard</title>
    <desc>Created with Sketch.</desc>
    <defs></defs>
    <g id="Artboard" stroke="none" stroke-width="1" fill="none" fill-rule="evenodd">
        <ellipse id="Oval" fill="#1B1F24" cx="190" cy="192" rx="190" ry="192"></ellipse>
        <g id="if_AccountingAuditor_2_2175878" transform="translate(82.000000, 84.000000)" fill-rule="nonzero">
            <path d="M180.105677,17.4193548 L170.859484,23.5823226 C159.359226,9.22877419 141.716903,0 121.935484,0 C100.241419,0 81.0940645,11.0787097 69.8307097,27.8709677 L0,27.8709677 L0,216 L153.290323,216 L153.290323,116.936129 C172.002194,106.073419 184.645161,85.8634839 184.645161,62.7096774 C184.645161,50.4116129 181.035871,38.9636129 174.893806,29.268 L182.216903,24.3870968 L216,24.3870968 L216,17.4193548 L180.105677,17.4193548 Z M118.451613,7.14541935 L118.451613,61.6854194 L88.9676129,107.554065 C75.1854194,97.3950968 66.1935484,81.1010323 66.1935484,62.7096774 C66.1935484,33.1490323 89.3403871,8.95703226 118.451613,7.14541935 Z M121.935484,125.419355 C125.502968,125.419355 128.979871,125.050065 132.387097,124.475226 L132.387097,132.387097 L20.9032258,132.387097 L20.9032258,48.7741935 L60.8423226,48.7741935 C59.8180645,53.2649032 59.2258065,57.915871 59.2258065,62.7096774 C59.2258065,97.2870968 87.3580645,125.419355 121.935484,125.419355 Z M146.322581,209.032258 L6.96774194,209.032258 L6.96774194,34.8387097 L65.8416774,34.8387097 C64.6432258,37.2390968 63.5945806,39.7196129 62.7096774,42.2837419 L62.7096774,41.8064516 L13.9354839,41.8064516 L13.9354839,139.354839 L139.354839,139.354839 L139.354839,122.907484 C141.730839,122.217677 144.068516,121.43729 146.322581,120.48271 L146.322581,209.032258 Z M121.935484,118.451613 C112.086581,118.451613 102.840387,115.859613 94.8030968,111.358452 L123.346452,66.96 L172.758194,85.4907097 C164.027613,104.888903 144.552774,118.451613 121.935484,118.451613 Z M177.677419,62.7096774 C177.677419,68.3674839 176.816903,73.8267097 175.242194,78.9793548 L125.419355,60.2953548 L125.419355,7.14541935 C141.365032,8.13832258 155.526968,15.8063226 165.062323,27.4494194 L137.42129,45.8756129 L141.284903,51.6727742 L169.096645,33.1316129 C174.500129,41.715871 177.677419,51.84 177.677419,62.7096774 Z" id="Shape" fill="#056DD2"></path>
            <rect id="Rectangle-path" fill="#FFFFFF" x="209.032258" y="31.3548387" width="6.96774194" height="6.96774194"></rect>
            <rect id="Rectangle-path" fill="#FFFFFF" x="184.645161" y="31.3548387" width="17.4193548" height="6.96774194"></rect>
            <rect id="Rectangle-path" fill="#FFFFFF" x="13.9354839" y="146.322581" width="125.419355" height="6.96774194"></rect>
            <rect id="Rectangle-path" fill="#FFFFFF" x="27.8709677" y="160.258065" width="111.483871" height="6.96774194"></rect>
            <rect id="Rectangle-path" fill="#FFFFFF" x="13.9354839" y="160.258065" width="6.96774194" height="6.96774194"></rect>
            <rect id="Rectangle-path" fill="#FFFFFF" x="13.9354839" y="174.193548" width="125.419355" height="6.96774194"></rect>
            <rect id="Rectangle-path" fill="#FFFFFF" x="132.387097" y="188.129032" width="6.96774194" height="6.96774194"></rect>
            <rect id="Rectangle-path" fill="#FFFFFF" x="13.9354839" y="188.129032" width="111.483871" height="6.96774194"></rect>
            <path d="M174.193548,139.354839 L202.064516,139.354839 L202.064516,111.483871 L174.193548,111.483871 L174.193548,139.354839 Z M181.16129,118.451613 L195.096774,118.451613 L195.096774,132.387097 L181.16129,132.387097 L181.16129,118.451613 Z" id="Shape" fill="#FFFFFF"></path>
            <path d="M188.129032,181.16129 C178.524,181.16129 170.709677,188.975613 170.709677,198.580645 C170.709677,208.185677 178.524,216 188.129032,216 C197.734065,216 205.548387,208.185677 205.548387,198.580645 C205.548387,188.975613 197.734065,181.16129 188.129032,181.16129 Z M188.129032,209.032258 C182.36671,209.032258 177.677419,204.342968 177.677419,198.580645 C177.677419,192.818323 182.36671,188.129032 188.129032,188.129032 C193.891355,188.129032 198.580645,192.818323 198.580645,198.580645 C198.580645,204.342968 193.891355,209.032258 188.129032,209.032258 Z" id="Shape" fill="#FFFFFF"></path>
            <path d="M204.733161,174.193548 L188.129032,146.517677 L171.524903,174.193548 L204.733161,174.193548 Z M192.428129,167.225806 L183.829935,167.225806 L188.129032,160.062968 L192.428129,167.225806 Z" id="Shape" fill="#FFFFFF"></path>
        </g>
    </g>
</svg>